<svg width="34" height="26" viewBox="0 0 34 26" fill="none" xmlns="http://www.w3.org/2000/svg">
<path d="M2.51365 0.500046V0.500061H2.51759H30.8395C31.2006 0.502077 31.567 0.63729 31.8931 0.911472C32.2214 1.18757 32.4929 1.59241 32.6592 2.08687C32.8254 2.5809 32.8747 3.13051 32.7982 3.66464C32.7217 4.19907 32.5246 4.6819 32.2427 5.05654L32.2412 5.05856L18.0806 24.0765C18.0805 24.0768 18.0803 24.077 18.0801 24.0773C17.8853 24.3368 17.6574 24.5349 17.4148 24.6668C17.1728 24.7985 16.9187 24.8631 16.6667 24.8631C16.4147 24.8631 16.1606 24.7985 15.9185 24.6668C15.6759 24.5348 15.448 24.3367 15.2531 24.0771C15.253 24.0769 15.2529 24.0767 15.2527 24.0765L1.09213 5.05856L1.09213 5.05856L1.09061 5.05654C0.807467 4.68026 0.609914 4.19488 0.534138 3.65782C0.458405 3.12106 0.509613 2.56923 0.678375 2.07425C0.847282 1.57885 1.12187 1.17473 1.45287 0.900928C1.78183 0.628815 2.15078 0.497191 2.51365 0.500046Z" fill="#1D2130" stroke="#8D9DF7"/>
</svg>
